<svg id="Layer_1" data-name="Layer 1" xmlns="http://www.w3.org/2000/svg" viewBox="0 0 486.49 516.8"><defs><style>.cls-1,.cls-12,.cls-2,.cls-3,.cls-4,.cls-5{fill:none;}.cls-1{stroke:#fabe17;}.cls-1,.cls-2,.cls-3,.cls-4,.cls-5{stroke-miterlimit:10;stroke-width:20px;}.cls-2{stroke:#f47632;}.cls-3{stroke:#57abcd;}.cls-4{stroke:#676563;}.cls-5{stroke:#f16d6b;}.cls-6{fill:#fabe17;}.cls-7{fill:#f47632;}.cls-8{fill:#57abcd;}.cls-9{fill:#676563;}.cls-10{fill:#f16c6b;}.cls-11{fill:#f16d6b;}.cls-13{fill:#fff;}</style></defs><title>pillier</title><path class="cls-1" d="M189.8,269.79A132.42,132.42,0,0,1,315,180.55c.78,0,1.56,0,2.33,0" transform="translate(-65.64 -56.55)"/><path class="cls-2" d="M235.3,418.62a132.51,132.51,0,0,1-45.5-148.83" transform="translate(-65.64 -56.55)"/><path class="cls-3" d="M390.9,421.37a132.44,132.44,0,0,1-155.6-2.75" transform="translate(-65.64 -56.55)"/><path class="cls-4" d="M441.52,274A132.57,132.57,0,0,1,390.9,421.37" transform="translate(-65.64 -56.55)"/><path class="cls-5" d="M317.31,180.57A132.42,132.42,0,0,1,441.52,274" transform="translate(-65.64 -56.55)"/><polygon class="cls-6" points="147.13 160 176.99 133.66 139.25 120.97 147.13 160"/><polygon class="cls-7" points="119.95 313.93 81.5 303.62 109.65 275.47 119.95 313.93"/><polygon class="cls-8" points="227.68 429.62 252.1 398.17 212.66 392.74 227.68 429.62"/><polygon class="cls-9" points="410.65 319.26 386.15 287.88 371.22 324.79 410.65 319.26"/><polygon class="cls-10" points="350.21 157.89 356.22 118.53 319.13 133 350.21 157.89"/><path class="cls-6" d="M211.83,275.69c6.63,0,11.46,4.35,11.46,11.16S218.46,298,211.83,298s-11.46-4.35-11.46-11.16S205.2,275.69,211.83,275.69Zm0,18c4,0,6.6-2.88,6.6-6.84s-2.61-6.84-6.6-6.84-6.6,2.88-6.6,6.84S207.84,293.69,211.83,293.69Z" transform="translate(-65.64 -56.55)"/><path class="cls-6" d="M225.9,282.89h4.32v2h.06a4.73,4.73,0,0,1,4.26-2.34c4.56,0,5.4,3,5.4,6.9v8h-4.5v-7.14c0-1.68,0-3.84-2.34-3.84s-2.7,1.83-2.7,3.72v7.26h-4.5Z" transform="translate(-65.64 -56.55)"/><path class="cls-6" d="M256.92,295a7.92,7.92,0,0,1-6.15,2.88c-4.5,0-8.1-3-8.1-7.65s3.6-7.65,8.1-7.65c4.2,0,6.84,3,6.84,7.65v1.41H247.17a3.36,3.36,0,0,0,3.39,2.82,3.84,3.84,0,0,0,3.21-1.77Zm-3.81-6.42a2.7,2.7,0,0,0-2.76-2.76,3,3,0,0,0-3.18,2.76Z" transform="translate(-65.64 -56.55)"/><path class="cls-6" d="M277.47,287.18a3.21,3.21,0,0,0-2.61-1.23c-.75,0-1.65.33-1.65,1.2,0,2.16,7.59.33,7.59,5.88,0,3.72-3.6,4.8-6.72,4.8a8,8,0,0,1-5.73-2l2.73-3a3.91,3.91,0,0,0,3.18,1.59c1,0,2-.27,2-1.05,0-2.34-7.59-.36-7.59-5.91,0-3.42,3.06-4.92,6.12-4.92a7.36,7.36,0,0,1,5.4,1.92Z" transform="translate(-65.64 -56.55)"/><path class="cls-6" d="M293,286.49h-4v4.86c0,1.56.18,2.7,2.13,2.7a3.24,3.24,0,0,0,1.83-.42v3.75a9.32,9.32,0,0,1-3.15.45c-3,0-5.31-1.23-5.31-4.41v-6.93H281.7v-3.6h2.88v-4.32h4.5v4.32h4Z" transform="translate(-65.64 -56.55)"/><path class="cls-6" d="M302.88,282.53c4.5,0,8.1,3,8.1,7.65s-3.6,7.65-8.1,7.65-8.1-3-8.1-7.65S298.38,282.53,302.88,282.53Zm0,11.34a3.69,3.69,0,1,0-3.6-3.69A3.41,3.41,0,0,0,302.88,293.87Z" transform="translate(-65.64 -56.55)"/><path class="cls-6" d="M314,282.89h4.14v1.92h.06a5.65,5.65,0,0,1,4.47-2.28c4.32,0,7.17,3.12,7.17,7.53,0,4.05-2.52,7.77-6.66,7.77a5.44,5.44,0,0,1-4.62-1.92h-.06v8.4H314Zm7.74,11a3.69,3.69,0,1,0-3.6-3.69A3.41,3.41,0,0,0,321.78,293.87Z" transform="translate(-65.64 -56.55)"/><path class="cls-7" d="M351.27,287.6a2.78,2.78,0,0,0-2.22-1.11,3.69,3.69,0,0,0,0,7.38,2.87,2.87,0,0,0,2.22-1.11l3,3.12a7.32,7.32,0,0,1-5.19,1.95c-4.5,0-8.1-3-8.1-7.65s3.6-7.65,8.1-7.65a7.32,7.32,0,0,1,5.19,2Z" transform="translate(-65.64 -56.55)"/><path class="cls-7" d="M369.66,295a7.92,7.92,0,0,1-6.15,2.88c-4.5,0-8.1-3-8.1-7.65s3.6-7.65,8.1-7.65c4.2,0,6.84,3,6.84,7.65v1.41H359.91a3.36,3.36,0,0,0,3.39,2.82,3.84,3.84,0,0,0,3.21-1.77Zm-3.81-6.42a2.7,2.7,0,0,0-2.76-2.76,3,3,0,0,0-3.18,2.76Z" transform="translate(-65.64 -56.55)"/><path class="cls-7" d="M373.08,282.89h4.32v2h.06a4.73,4.73,0,0,1,4.26-2.34c4.56,0,5.4,3,5.4,6.9v8h-4.5v-7.14c0-1.68,0-3.84-2.34-3.84s-2.7,1.83-2.7,3.72v7.26h-4.5Z" transform="translate(-65.64 -56.55)"/><path class="cls-7" d="M400.23,286.49h-4v4.86c0,1.56.18,2.7,2.13,2.7a3.24,3.24,0,0,0,1.83-.42v3.75a9.32,9.32,0,0,1-3.15.45c-3,0-5.31-1.23-5.31-4.41v-6.93h-2.88v-3.6h2.88v-4.32h4.5v4.32h4Z" transform="translate(-65.64 -56.55)"/><path class="cls-7" d="M416.31,295a7.92,7.92,0,0,1-6.15,2.88c-4.5,0-8.1-3-8.1-7.65s3.6-7.65,8.1-7.65c4.2,0,6.84,3,6.84,7.65v1.41H406.56a3.36,3.36,0,0,0,3.39,2.82,3.84,3.84,0,0,0,3.21-1.77Zm-3.81-6.42a2.7,2.7,0,0,0-2.76-2.76,3,3,0,0,0-3.18,2.76Z" transform="translate(-65.64 -56.55)"/><path class="cls-7" d="M419.73,282.89h4.5v2.34h.06a4.45,4.45,0,0,1,4.2-2.7,5.92,5.92,0,0,1,1.5.15v4.11a6.93,6.93,0,0,0-1.92-.3c-3.42,0-3.84,2-3.84,4.89v6.09h-4.5Z" transform="translate(-65.64 -56.55)"/><path class="cls-9" d="M267.75,320.49a6.7,6.7,0,1,1,6.83-6.72A6.51,6.51,0,0,1,267.75,320.49Zm.06-2.05c2.75,0,4.39-2.15,4.39-4.74a4.39,4.39,0,1,0-8.77,0C263.43,316.31,265.07,318.44,267.81,318.44Z" transform="translate(-65.64 -56.55)"/><path class="cls-9" d="M284.85,316v.61h-6.59a2.24,2.24,0,0,0,2.32,2,2.84,2.84,0,0,0,2.33-1.17l1.55,1.17a4.54,4.54,0,0,1-3.66,1.73,4.54,4.54,0,1,1,0-9.07C283.54,311.31,284.85,313.38,284.85,316Zm-2.16-1a2,2,0,0,0-2.21-2.05,2.14,2.14,0,0,0-2.22,2.05Z" transform="translate(-65.64 -56.55)"/><path class="cls-9" d="M289,311.52V316c0,1.73.54,2.45,1.58,2.45a1.93,1.93,0,0,0,2-2.2v-4.72h2.16v8.65H292.7v-1.39h0a2.69,2.69,0,0,1-2.64,1.6c-2.52,0-3.15-1.91-3.15-3.33v-5.53Z" transform="translate(-65.64 -56.55)"/><path class="cls-9" d="M298.39,311.52l2.3,6.05h0l2.32-6.05h2.21l-3.4,8.65h-2.3L296,311.52Z" transform="translate(-65.64 -56.55)"/><path class="cls-9" d="M306.54,311.52h2.16v1.37h0a2.8,2.8,0,0,1,3.33-1.46v2.09a4,4,0,0,0-1.05-.16,2.17,2.17,0,0,0-2.32,2.3v4.51h-2.16Z" transform="translate(-65.64 -56.55)"/><path class="cls-9" d="M321.54,316v.61H315a2.24,2.24,0,0,0,2.32,2,2.83,2.83,0,0,0,2.32-1.17l1.55,1.17a4.53,4.53,0,0,1-3.65,1.73,4.54,4.54,0,1,1,0-9.07C320.22,311.31,321.54,313.38,321.54,316Zm-2.16-1a2,2,0,0,0-2.22-2.05A2.13,2.13,0,0,0,315,315Z" transform="translate(-65.64 -56.55)"/><path class="cls-9" d="M323.55,311.52h2.16v1.37h0a2.73,2.73,0,0,1,2.55-1.58,2.77,2.77,0,0,1,.78.12v2.09a4,4,0,0,0-1.05-.16,2.17,2.17,0,0,0-2.32,2.3v4.51h-2.16Z" transform="translate(-65.64 -56.55)"/><path class="cls-9" d="M345.21,315.84a4.25,4.25,0,0,1-4.18,4.54,3.59,3.59,0,0,1-2.94-1.31h0v5.2h-2.16V311.52h2.05v1.3h0a3.33,3.33,0,0,1,3-1.51A4.2,4.2,0,0,1,345.21,315.84Zm-4.7,2.6a2.6,2.6,0,1,0-2.54-2.6A2.5,2.5,0,0,0,340.51,318.44Z" transform="translate(-65.64 -56.55)"/><path class="cls-9" d="M356.19,315.84a4.7,4.7,0,1,1-4.7-4.53A4.48,4.48,0,0,1,356.19,315.84Zm-4.7,2.6a2.6,2.6,0,1,0-2.54-2.6A2.5,2.5,0,0,0,351.49,318.44Z" transform="translate(-65.64 -56.55)"/><path class="cls-9" d="M360.36,311.52V316c0,1.73.54,2.45,1.58,2.45a1.93,1.93,0,0,0,2-2.2v-4.72h2.16v8.65H364v-1.39h0a2.72,2.72,0,0,1-2.65,1.6c-2.52,0-3.15-1.91-3.15-3.33v-5.53Z" transform="translate(-65.64 -56.55)"/><path class="cls-9" d="M368.53,311.52h2.16v1.37h0a2.8,2.8,0,0,1,3.33-1.46v2.09a4,4,0,0,0-1.05-.16,2.17,2.17,0,0,0-2.32,2.3v4.51h-2.16Z" transform="translate(-65.64 -56.55)"/><path class="cls-9" d="M247.08,341.76h-2.16V328.15h2.16Z" transform="translate(-65.64 -56.55)"/><path class="cls-9" d="M251.92,333.77h-1.84V329h1.84Z" transform="translate(-65.64 -56.55)"/><path class="cls-9" d="M263.21,337.59v.61h-6.59a2.24,2.24,0,0,0,2.32,2.05,2.83,2.83,0,0,0,2.32-1.17l1.55,1.17a4.52,4.52,0,0,1-3.65,1.73,4.54,4.54,0,1,1,0-9.07C261.89,332.91,263.21,335,263.21,337.59Zm-2.16-1a2,2,0,0,0-2.22-2.05,2.13,2.13,0,0,0-2.21,2.05Zm-1.37-5H258l1.78-2.59h2.45Z" transform="translate(-65.64 -56.55)"/><path class="cls-9" d="M274.55,337.44a4.25,4.25,0,0,1-4.18,4.54,3.6,3.6,0,0,1-2.93-1.31h-.06v5.2h-2.16V333.12h2v1.3h0a3.33,3.33,0,0,1,3-1.51A4.2,4.2,0,0,1,274.55,337.44Zm-4.7,2.6a2.6,2.6,0,1,0-2.54-2.6A2.5,2.5,0,0,0,269.85,340Z" transform="translate(-65.64 -56.55)"/><path class="cls-9" d="M276,339.39c0-2,1.61-3,5.32-3H282v-.25c0-1-.79-1.6-2-1.6a3.41,3.41,0,0,0-2.3.9l-1.14-1.14a5,5,0,0,1,3.68-1.38c2.95,0,3.69,1.65,3.69,3.69v5.16h-2v-1.18h0a3.1,3.1,0,0,1-2.77,1.4C277.35,342,276,341,276,339.39Zm2.17-.16c0,.73.72,1.13,1.53,1.13,1.47,0,2.16-.83,2.16-1.93v-.54h-.63C279.3,337.89,278.15,338.31,278.15,339.23Z" transform="translate(-65.64 -56.55)"/><path class="cls-9" d="M286.23,341.76v-8.64h2v1.39h0a2.72,2.72,0,0,1,2.65-1.6c2.58,0,3.15,2,3.15,3.33v5.52H292v-4.48c0-1.73-.56-2.43-1.58-2.43a1.93,1.93,0,0,0-2,2.16v4.75Z" transform="translate(-65.64 -56.55)"/><path class="cls-9" d="M305.53,337.44a4.7,4.7,0,1,1-4.7-4.53A4.48,4.48,0,0,1,305.53,337.44Zm-4.7,2.6a2.6,2.6,0,1,0-2.54-2.6A2.49,2.49,0,0,0,300.83,340Z" transform="translate(-65.64 -56.55)"/><path class="cls-9" d="M309.7,333.12v4.47c0,1.73.54,2.45,1.58,2.45a1.93,1.93,0,0,0,2-2.2v-4.72h2.16v8.64h-2.05v-1.38h0a2.72,2.72,0,0,1-2.65,1.6c-2.52,0-3.15-1.91-3.15-3.33v-5.53Z" transform="translate(-65.64 -56.55)"/><path class="cls-9" d="M320.37,330.19a1.39,1.39,0,0,1-2.77,0,1.39,1.39,0,0,1,2.77,0Zm-.3,11.57h-2.16v-8.64h2.16Z" transform="translate(-65.64 -56.55)"/><path class="cls-9" d="M328.6,334.22l-1.44,1.3a2,2,0,0,0-1.69-.89c-.71,0-1.26.36-1.26.92s1,.83,2.05,1.08c1.33.31,2.61.8,2.61,2.58s-1.6,2.77-3.75,2.77a4.17,4.17,0,0,1-3.34-1.33l1.44-1.35a2.56,2.56,0,0,0,2,1.06c.79,0,1.44-.4,1.44-1,0-.83-1-1-2.14-1.22s-2.52-.69-2.52-2.45c0-2.11,2-2.79,3.45-2.79A3.73,3.73,0,0,1,328.6,334.22Z" transform="translate(-65.64 -56.55)"/><path class="cls-9" d="M336.59,334.22l-1.44,1.3a2,2,0,0,0-1.69-.89c-.7,0-1.26.36-1.26.92s1,.83,2.05,1.08c1.33.31,2.61.8,2.61,2.58s-1.6,2.77-3.74,2.77a4.18,4.18,0,0,1-3.35-1.33l1.44-1.35a2.57,2.57,0,0,0,2.05,1.06c.79,0,1.44-.4,1.44-1,0-.83-1-1-2.14-1.22s-2.52-.69-2.52-2.45c0-2.11,2-2.79,3.46-2.79A3.73,3.73,0,0,1,336.59,334.22Z" transform="translate(-65.64 -56.55)"/><path class="cls-9" d="M346.85,337.59v.61h-6.59a2.24,2.24,0,0,0,2.32,2.05,2.84,2.84,0,0,0,2.33-1.17l1.55,1.17A4.54,4.54,0,0,1,342.8,342a4.54,4.54,0,1,1,0-9.07C345.54,332.91,346.85,335,346.85,337.59Zm-2.16-1a2,2,0,0,0-2.21-2.05,2.14,2.14,0,0,0-2.22,2.05Z" transform="translate(-65.64 -56.55)"/><path class="cls-9" d="M348.78,341.76v-8.64h2.05v1.35h0a2.78,2.78,0,0,1,2.65-1.56,2.64,2.64,0,0,1,2.7,1.6,3,3,0,0,1,2.85-1.6c2.12,0,3.11,1.38,3.11,3.76v5.09H360v-4.95c0-1.27-.52-2-1.6-2s-1.86.83-1.86,2.23v4.68h-2.16v-5.2c0-.86-.34-1.71-1.47-1.71a1.94,1.94,0,0,0-2,2.2v4.71Z" transform="translate(-65.64 -56.55)"/><path class="cls-9" d="M372.84,337.59v.61h-6.59a2.25,2.25,0,0,0,2.33,2.05,2.83,2.83,0,0,0,2.32-1.17l1.55,1.17a4.54,4.54,0,0,1-3.66,1.73,4.54,4.54,0,1,1,0-9.07C371.53,332.91,372.84,335,372.84,337.59Zm-2.16-1a2,2,0,0,0-2.21-2.05,2.15,2.15,0,0,0-2.22,2.05Z" transform="translate(-65.64 -56.55)"/><path class="cls-9" d="M374.86,341.76v-8.64h2.05v1.39h0a2.7,2.7,0,0,1,2.64-1.6c2.58,0,3.15,2,3.15,3.33v5.52h-2.16v-4.48c0-1.73-.55-2.43-1.58-2.43a1.93,1.93,0,0,0-2,2.16v4.75Z" transform="translate(-65.64 -56.55)"/><path class="cls-9" d="M384.18,335v-1.84H386v-2.5h2.17v2.5h2.37V335h-2.37v3.83c0,.92.36,1.35,1.2,1.35a2.08,2.08,0,0,0,1.17-.27v1.82a4.8,4.8,0,0,1-1.71.29c-2,0-2.83-.79-2.83-3V335Z" transform="translate(-65.64 -56.55)"/><path class="cls-9" d="M222.71,351.79a1.32,1.32,0,0,1-1.41,1.29,1.3,1.3,0,1,1,1.41-1.29Zm-.31,11.57h-2.16v-8.64h2.16Z" transform="translate(-65.64 -56.55)"/><path class="cls-9" d="M224.88,363.36v-8.64h2.06v1.39h0a2.71,2.71,0,0,1,2.65-1.6c2.57,0,3.15,2,3.15,3.33v5.52h-2.16v-4.48c0-1.73-.56-2.43-1.59-2.43a1.93,1.93,0,0,0-2,2.16v4.75Z" transform="translate(-65.64 -56.55)"/><path class="cls-9" d="M234.21,356.56v-1.84H236v-2.5h2.16v2.5h2.38v1.84h-2.38v3.83c0,.92.36,1.35,1.21,1.35a2.08,2.08,0,0,0,1.17-.27v1.82a4.88,4.88,0,0,1-1.71.29c-2,0-2.83-.79-2.83-3v-4.05Z" transform="translate(-65.64 -56.55)"/><path class="cls-9" d="M250.54,359.19v.61H244a2.24,2.24,0,0,0,2.32,2.05,2.83,2.83,0,0,0,2.32-1.17l1.55,1.17a4.54,4.54,0,0,1-3.66,1.73,4.54,4.54,0,1,1,0-9.07C249.22,354.51,250.54,356.58,250.54,359.19Zm-2.16-1a2,2,0,0,0-2.22-2.05,2.13,2.13,0,0,0-2.21,2.05Zm-1.37-5h-1.7l1.79-2.59h2.45Z" transform="translate(-65.64 -56.55)"/><path class="cls-9" d="M259.36,356h0v-1.3h2.05v7.94c0,3.12-1.62,5-4.88,5a6.14,6.14,0,0,1-4.28-1.43l1.3-1.76a4.19,4.19,0,0,0,3,1.24c2,0,2.73-1,2.73-3v-.56h0a3.51,3.51,0,0,1-2.83,1.26,4.23,4.23,0,0,1-4.3-4.43c0-2.59,1.62-4.53,4.25-4.53A3.36,3.36,0,0,1,259.36,356Zm-2.54,5.51a2.44,2.44,0,0,0,2.57-2.54,2.39,2.39,0,0,0-2.57-2.54,2.44,2.44,0,0,0-2.54,2.58A2.49,2.49,0,0,0,256.82,361.53Z" transform="translate(-65.64 -56.55)"/><path class="cls-9" d="M263.89,354.72h2.16v1.37h0a2.73,2.73,0,0,1,2.55-1.58,2.77,2.77,0,0,1,.78.12v2.09a4,4,0,0,0-1.05-.16,2.17,2.17,0,0,0-2.32,2.3v4.5h-2.16Z" transform="translate(-65.64 -56.55)"/><path class="cls-9" d="M270.32,361c0-2,1.6-3,5.31-3h.66v-.25c0-1-.79-1.6-2-1.6a3.41,3.41,0,0,0-2.3.9l-1.14-1.14a5,5,0,0,1,3.68-1.38c2.95,0,3.69,1.65,3.69,3.69v5.16h-1.95v-1.18h-.05a3.1,3.1,0,0,1-2.77,1.4C271.68,363.58,270.32,362.57,270.32,361Zm2.16-.16c0,.73.72,1.13,1.53,1.13,1.47,0,2.16-.83,2.16-1.93v-.54h-.63C273.63,359.49,272.48,359.91,272.48,360.83Z" transform="translate(-65.64 -56.55)"/><path class="cls-9" d="M280.47,363.36v-8.64h2v1.35h0a2.75,2.75,0,0,1,2.64-1.56,2.63,2.63,0,0,1,2.7,1.6,3,3,0,0,1,2.85-1.6c2.12,0,3.11,1.38,3.11,3.76v5.09H291.7v-4.95c0-1.28-.52-2-1.6-2s-1.85.83-1.85,2.23v4.68h-2.17v-5.2c0-.86-.34-1.71-1.47-1.71a1.94,1.94,0,0,0-2,2.2v4.71Z" transform="translate(-65.64 -56.55)"/><path class="cls-9" d="M304.54,359.19v.61H298a2.24,2.24,0,0,0,2.32,2.05,2.83,2.83,0,0,0,2.32-1.17l1.55,1.17a4.54,4.54,0,0,1-3.66,1.73,4.54,4.54,0,1,1,0-9.07C303.22,354.51,304.54,356.58,304.54,359.19Zm-2.16-1a2,2,0,0,0-2.22-2.05,2.13,2.13,0,0,0-2.21,2.05Z" transform="translate(-65.64 -56.55)"/><path class="cls-9" d="M320.77,349.75v13.61h-2v-1.29h0a3.33,3.33,0,0,1-3,1.51c-2.62,0-4.24-1.94-4.24-4.54a4.24,4.24,0,0,1,4.17-4.53,3.62,3.62,0,0,1,2.94,1.31h.05v-6.07Zm-4.63,11.89a2.6,2.6,0,1,0-2.53-2.6A2.51,2.51,0,0,0,316.14,361.64Z" transform="translate(-65.64 -56.55)"/><path class="cls-9" d="M331.54,359.19v.61H325a2.24,2.24,0,0,0,2.32,2.05,2.83,2.83,0,0,0,2.32-1.17l1.55,1.17a4.54,4.54,0,0,1-3.66,1.73,4.54,4.54,0,1,1,0-9.07C330.22,354.51,331.54,356.58,331.54,359.19Zm-2.17-1a2,2,0,0,0-2.21-2.05,2.13,2.13,0,0,0-2.21,2.05Z" transform="translate(-65.64 -56.55)"/><path class="cls-9" d="M341.07,363.36h-2.16V349.75h2.16Z" transform="translate(-65.64 -56.55)"/><path class="cls-9" d="M343,361c0-2,1.6-3,5.31-3H349v-.25c0-1-.79-1.6-2-1.6a3.46,3.46,0,0,0-2.31.9l-1.13-1.14a5,5,0,0,1,3.67-1.38c3,0,3.69,1.65,3.69,3.69v5.16H349v-1.18h-.06a3.1,3.1,0,0,1-2.77,1.4C344.35,363.58,343,362.57,343,361Zm2.16-.16c0,.73.72,1.13,1.53,1.13,1.48,0,2.16-.83,2.16-1.93v-.54h-.63C346.29,359.49,345.14,359.91,345.14,360.83Z" transform="translate(-65.64 -56.55)"/><path class="cls-9" d="M359.33,354.72v-1.35c0-2.83,1-3.83,3.24-3.83a7.72,7.72,0,0,1,1.35.12l-.15,1.84a3.48,3.48,0,0,0-.9-.13c-.95,0-1.38.49-1.38,1.71v1.64h2v1.84h-2v6.8h-2.16v-6.8h-1.79v-1.84Z" transform="translate(-65.64 -56.55)"/><path class="cls-9" d="M373.21,359.19v.61h-6.59a2.24,2.24,0,0,0,2.32,2.05,2.83,2.83,0,0,0,2.32-1.17l1.55,1.17a4.54,4.54,0,0,1-3.66,1.73,4.54,4.54,0,1,1,0-9.07C371.89,354.51,373.21,356.58,373.21,359.19Zm-2.17-1a2,2,0,0,0-2.21-2.05,2.13,2.13,0,0,0-2.21,2.05Z" transform="translate(-65.64 -56.55)"/><path class="cls-9" d="M375.13,363.36v-8.64h2.05v1.35h0a2.76,2.76,0,0,1,2.64-1.56,2.63,2.63,0,0,1,2.7,1.6,3,3,0,0,1,2.85-1.6c2.12,0,3.11,1.38,3.11,3.76v5.09h-2.16v-4.95c0-1.28-.52-2-1.6-2s-1.85.83-1.85,2.23v4.68h-2.16v-5.2c0-.86-.35-1.71-1.48-1.71a1.94,1.94,0,0,0-2,2.2v4.71Z" transform="translate(-65.64 -56.55)"/><path class="cls-9" d="M390.79,363.36v-8.64h2v1.35h0a2.76,2.76,0,0,1,2.64-1.56,2.63,2.63,0,0,1,2.7,1.6,3,3,0,0,1,2.85-1.6c2.12,0,3.11,1.38,3.11,3.76v5.09H402v-4.95c0-1.28-.52-2-1.6-2s-1.85.83-1.85,2.23v4.68h-2.16v-5.2c0-.86-.35-1.71-1.48-1.71a1.94,1.94,0,0,0-2,2.2v4.71Z" transform="translate(-65.64 -56.55)"/><path class="cls-9" d="M414.86,359.19v.61h-6.59a2.24,2.24,0,0,0,2.32,2.05,2.83,2.83,0,0,0,2.32-1.17l1.55,1.17a4.53,4.53,0,0,1-3.65,1.73,4.54,4.54,0,1,1,0-9.07C413.54,354.51,414.86,356.58,414.86,359.19Zm-2.16-1a2,2,0,0,0-2.22-2.05,2.13,2.13,0,0,0-2.21,2.05Z" transform="translate(-65.64 -56.55)"/><rect class="cls-6" x="205.03" y="319.71" width="31.15" height="3.32"/><rect class="cls-7" x="173.88" y="319.71" width="31.15" height="3.32"/><rect class="cls-11" x="236.03" y="319.71" width="31.15" height="3.32"/><rect class="cls-8" x="267.18" y="319.71" width="31.15" height="3.32"/><rect class="cls-9" x="298.32" y="319.71" width="31.15" height="3.32"/><path class="cls-10" d="M384.24,166.08V153.33h4.38c1.64,0,4.61.47,4.61,3.66,0,2.66-1.57,3.81-5,3.81h-1.75v5.28Zm2.27-7.22H388c1.33,0,2.86-.14,2.86-1.8,0-1.21-.88-1.78-2.65-1.78h-1.69Z" transform="translate(-65.64 -56.55)"/><path class="cls-10" d="M397.54,154.5a1.32,1.32,0,0,1-1.4,1.3,1.3,1.3,0,1,1,0-2.59A1.32,1.32,0,0,1,397.54,154.5Zm-.3,11.58h-2.16v-8.64h2.16Z" transform="translate(-65.64 -56.55)"/><path class="cls-10" d="M401.92,166.08h-2.16V152.47h2.16Z" transform="translate(-65.64 -56.55)"/><path class="cls-10" d="M406.6,166.08h-2.16V152.47h2.16Z" transform="translate(-65.64 -56.55)"/><path class="cls-10" d="M411.58,154.5a1.32,1.32,0,0,1-1.4,1.3,1.3,1.3,0,1,1,0-2.59A1.32,1.32,0,0,1,411.58,154.5Zm-.3,11.58h-2.16v-8.64h2.16Z" transform="translate(-65.64 -56.55)"/><path class="cls-10" d="M422.08,161.9v.62h-6.59a2.24,2.24,0,0,0,2.32,2,2.86,2.86,0,0,0,2.32-1.17l1.55,1.17A4.52,4.52,0,0,1,418,166.3a4.54,4.54,0,1,1,0-9.08C420.76,157.22,422.08,159.29,422.08,161.9Zm-2.16-1a2,2,0,0,0-2.22-2,2.15,2.15,0,0,0-2.21,2Z" transform="translate(-65.64 -56.55)"/><path class="cls-10" d="M424.09,157.44h2.16v1.37h0a2.75,2.75,0,0,1,3.33-1.46v2.09a3.93,3.93,0,0,0-1-.17,2.18,2.18,0,0,0-2.33,2.31v4.5h-2.16Z" transform="translate(-65.64 -56.55)"/><path class="cls-10" d="M436.33,166.08v-8.64h2.05v1.35h0a2.78,2.78,0,0,1,2.65-1.57,2.64,2.64,0,0,1,2.7,1.6,3,3,0,0,1,2.84-1.6c2.13,0,3.12,1.39,3.12,3.76v5.1h-2.16v-5c0-1.28-.52-2-1.6-2s-1.86.82-1.86,2.23v4.68H442v-5.2c0-.87-.34-1.71-1.48-1.71a1.94,1.94,0,0,0-2,2.19v4.72Z" transform="translate(-65.64 -56.55)"/><path class="cls-10" d="M460.4,161.9v.62h-6.59a2.24,2.24,0,0,0,2.32,2,2.88,2.88,0,0,0,2.33-1.17l1.54,1.17a4.62,4.62,0,1,1-3.65-7.35C459.09,157.22,460.4,159.29,460.4,161.9Zm-2.16-1a2,2,0,0,0-2.21-2,2.15,2.15,0,0,0-2.22,2Zm-1.37-5h-1.69l1.78-2.6h2.45Z" transform="translate(-65.64 -56.55)"/><path class="cls-10" d="M471.31,152.47v13.61h-2.05v-1.3h0a3.33,3.33,0,0,1-3,1.52c-2.63,0-4.25-2-4.25-4.54a4.25,4.25,0,0,1,4.18-4.54,3.59,3.59,0,0,1,2.93,1.32h.06v-6.07Zm-4.63,11.88a2.59,2.59,0,1,0-2.54-2.59A2.5,2.5,0,0,0,466.68,164.35Z" transform="translate(-65.64 -56.55)"/><path class="cls-10" d="M476.26,154.5a1.32,1.32,0,0,1-1.41,1.3,1.3,1.3,0,1,1,0-2.59A1.32,1.32,0,0,1,476.26,154.5ZM476,166.08h-2.16v-8.64H476Z" transform="translate(-65.64 -56.55)"/><path class="cls-10" d="M485.83,158.54,484.34,160a2.38,2.38,0,0,0-1.64-.86,2.59,2.59,0,0,0,0,5.18,2.12,2.12,0,0,0,1.68-.81l1.44,1.55a4.83,4.83,0,0,1-3.12,1.21,4.54,4.54,0,1,1,0-9.08A4.16,4.16,0,0,1,485.83,158.54Z" transform="translate(-65.64 -56.55)"/><path class="cls-10" d="M486.53,163.7c0-2,1.61-3,5.32-3h.66v-.26c0-1-.79-1.6-2-1.6a3.41,3.41,0,0,0-2.3.9l-1.14-1.13a5,5,0,0,1,3.68-1.39c3,0,3.69,1.66,3.69,3.69v5.17h-1.95v-1.19h-.05a3.12,3.12,0,0,1-2.78,1.41C487.9,166.3,486.53,165.29,486.53,163.7Zm2.16-.16c0,.74.73,1.14,1.53,1.14,1.48,0,2.17-.83,2.17-1.93v-.54h-.63C489.85,162.21,488.69,162.62,488.69,163.54Z" transform="translate(-65.64 -56.55)"/><path class="cls-10" d="M499,166.08h-2.16V152.47H499Z" transform="translate(-65.64 -56.55)"/><path class="cls-9" d="M493.45,367.83V355.09h4.37c1.64,0,4.61.46,4.61,3.65,0,2.67-1.56,3.82-5,3.82h-1.74v5.27Zm2.27-7.22h1.47c1.34,0,2.87-.14,2.87-1.8,0-1.2-.89-1.78-2.65-1.78h-1.69Z" transform="translate(-65.64 -56.55)"/><path class="cls-9" d="M506.75,356.26a1.39,1.39,0,1,1-1.4-1.3A1.33,1.33,0,0,1,506.75,356.26Zm-.31,11.57h-2.16v-8.64h2.16Z" transform="translate(-65.64 -56.55)"/><path class="cls-9" d="M511.12,367.83H509V354.22h2.16Z" transform="translate(-65.64 -56.55)"/><path class="cls-9" d="M515.8,367.83h-2.16V354.22h2.16Z" transform="translate(-65.64 -56.55)"/><path class="cls-9" d="M520.79,356.26a1.39,1.39,0,1,1-1.41-1.3A1.33,1.33,0,0,1,520.79,356.26Zm-.31,11.57h-2.16v-8.64h2.16Z" transform="translate(-65.64 -56.55)"/><path class="cls-9" d="M531.29,363.66v.61H524.7a2.24,2.24,0,0,0,2.32,2.05,2.83,2.83,0,0,0,2.32-1.17l1.55,1.17a4.54,4.54,0,0,1-3.66,1.73,4.54,4.54,0,1,1,0-9.07C530,359,531.29,361.05,531.29,363.66Zm-2.17-1a2,2,0,0,0-2.21-2,2.13,2.13,0,0,0-2.21,2Z" transform="translate(-65.64 -56.55)"/><path class="cls-9" d="M533.3,359.19h2.16v1.37h0a2.73,2.73,0,0,1,2.55-1.58,2.77,2.77,0,0,1,.78.12v2.09a4,4,0,0,0-1.05-.16,2.17,2.17,0,0,0-2.32,2.3v4.5H533.3Z" transform="translate(-65.64 -56.55)"/><path class="cls-9" d="M481.61,390.07c0,2.66-.9,3.69-2.91,3.69a3.42,3.42,0,0,1-1.17-.17l.16-1.87a2.89,2.89,0,0,0,.68.09c1,0,1.08-.81,1.08-1.73v-9.29h2.16Zm.31-12.21a1.39,1.39,0,0,1-2.77,0,1.39,1.39,0,0,1,2.77,0Z" transform="translate(-65.64 -56.55)"/><path class="cls-9" d="M486.26,380.79v4.47c0,1.73.54,2.45,1.58,2.45a1.93,1.93,0,0,0,2-2.2v-4.72H492v8.64h-2.05v-1.38h0a2.72,2.72,0,0,1-2.65,1.6c-2.52,0-3.15-1.91-3.15-3.33v-5.53Z" transform="translate(-65.64 -56.55)"/><path class="cls-9" d="M494.43,380.79h2.16v1.37h0a2.73,2.73,0,0,1,2.55-1.58,2.77,2.77,0,0,1,.78.12v2.09a4,4,0,0,0-1-.16,2.17,2.17,0,0,0-2.32,2.3v4.5h-2.16Z" transform="translate(-65.64 -56.55)"/><path class="cls-9" d="M503.93,377.86a1.31,1.31,0,0,1-1.4,1.29,1.3,1.3,0,1,1,1.4-1.29Zm-.3,11.57h-2.16v-8.64h2.16Z" transform="translate(-65.64 -56.55)"/><path class="cls-9" d="M515,375.82v13.61H513v-1.29h0a3.36,3.36,0,0,1-3,1.51c-2.63,0-4.25-1.94-4.25-4.54a4.24,4.24,0,0,1,4.18-4.53,3.6,3.6,0,0,1,2.93,1.31h.05v-6.07Zm-4.63,11.89a2.6,2.6,0,1,0-2.54-2.6A2.51,2.51,0,0,0,510.38,387.71Z" transform="translate(-65.64 -56.55)"/><path class="cls-9" d="M520,377.86a1.31,1.31,0,0,1-1.4,1.29,1.3,1.3,0,1,1,1.4-1.29Zm-.3,11.57h-2.16v-8.64h2.16Z" transform="translate(-65.64 -56.55)"/><path class="cls-9" d="M528.94,382.09h0v-1.3H531v12.75h-2.17v-5.2h-.05a3.63,3.63,0,0,1-2.93,1.31,4.25,4.25,0,0,1-4.18-4.54c0-2.55,1.6-4.53,4.25-4.53A3.36,3.36,0,0,1,528.94,382.09Zm-2.54,5.62a2.6,2.6,0,1,0-2.54-2.6A2.5,2.5,0,0,0,526.4,387.71Z" transform="translate(-65.64 -56.55)"/><path class="cls-9" d="M535.63,380.79v4.47c0,1.73.54,2.45,1.59,2.45a1.94,1.94,0,0,0,2-2.2v-4.72h2.16v8.64H539.3v-1.38h0a2.71,2.71,0,0,1-2.65,1.6c-2.52,0-3.15-1.91-3.15-3.33v-5.53Z" transform="translate(-65.64 -56.55)"/><path class="cls-9" d="M552.12,385.26v.61h-6.59a2.24,2.24,0,0,0,2.32,2.05,2.85,2.85,0,0,0,2.33-1.17l1.54,1.17a4.62,4.62,0,1,1-3.65-7.34C550.81,380.58,552.12,382.65,552.12,385.26Zm-2.16-1a2,2,0,0,0-2.21-2.05,2.15,2.15,0,0,0-2.22,2.05Z" transform="translate(-65.64 -56.55)"/><path class="cls-7" d="M65.7,365.36V352.61h4.38c1.63,0,4.61.47,4.61,3.65,0,2.67-1.57,3.82-5,3.82H68v5.28ZM68,358.14h1.48c1.33,0,2.86-.15,2.86-1.81,0-1.2-.88-1.78-2.65-1.78H68Z" transform="translate(-65.64 -56.55)"/><path class="cls-7" d="M78.7,365.36H76.54V351.74H78.7Z" transform="translate(-65.64 -56.55)"/><path class="cls-7" d="M80.6,363c0-2,1.61-3,5.32-3h.66v-.25c0-1-.79-1.6-2-1.6a3.41,3.41,0,0,0-2.3.9l-1.14-1.14a5,5,0,0,1,3.68-1.38c3,0,3.69,1.65,3.69,3.69v5.17h-2v-1.19h0a3.11,3.11,0,0,1-2.78,1.4C82,365.57,80.6,364.56,80.6,363Zm2.16-.16c0,.74.73,1.13,1.53,1.13,1.48,0,2.17-.83,2.17-1.93v-.54h-.63C83.92,361.48,82.76,361.9,82.76,362.82Z" transform="translate(-65.64 -56.55)"/><path class="cls-7" d="M93.35,353.78a1.39,1.39,0,0,1-2.77,0,1.39,1.39,0,0,1,2.77,0ZM93,365.36H90.88v-8.65H93Z" transform="translate(-65.64 -56.55)"/><path class="cls-7" d="M104.42,351.74v13.62h-2v-1.3h0a3.34,3.34,0,0,1-3,1.51c-2.63,0-4.25-1.94-4.25-4.54a4.24,4.24,0,0,1,4.18-4.53,3.62,3.62,0,0,1,2.94,1.31h.05v-6.07Zm-4.63,11.89a2.6,2.6,0,1,0-2.54-2.6A2.51,2.51,0,0,0,99.79,363.63Z" transform="translate(-65.64 -56.55)"/><path class="cls-7" d="M115.83,361a4.7,4.7,0,1,1-4.7-4.53A4.47,4.47,0,0,1,115.83,361Zm-4.7,2.6a2.6,2.6,0,1,0-2.54-2.6A2.5,2.5,0,0,0,111.13,363.63Z" transform="translate(-65.64 -56.55)"/><path class="cls-7" d="M119.05,356.71l2.41,6h0l2.16-6h2.25L122,366.83c-.7,1.78-1.28,2.85-3.44,2.85a6.2,6.2,0,0,1-1.66-.22l.27-1.94a3.41,3.41,0,0,0,1.1.21c1.14,0,1.35-.41,1.75-1.37l.38-.93-3.7-8.72Z" transform="translate(-65.64 -56.55)"/><path class="cls-7" d="M135.51,361.18v.61h-6.59a2.24,2.24,0,0,0,2.32,2,2.83,2.83,0,0,0,2.32-1.17l1.55,1.17a4.62,4.62,0,1,1-3.66-7.34C134.19,356.5,135.51,358.57,135.51,361.18Zm-2.17-1a2,2,0,0,0-2.21-2.05,2.14,2.14,0,0,0-2.21,2.05Z" transform="translate(-65.64 -56.55)"/><path class="cls-7" d="M137.52,356.71h2.16v1.37h0a2.73,2.73,0,0,1,2.55-1.58,2.77,2.77,0,0,1,.78.12v2.09a4,4,0,0,0-1.05-.16,2.17,2.17,0,0,0-2.32,2.3v4.51h-2.16Z" transform="translate(-65.64 -56.55)"/><path class="cls-6" d="M167.69,147.19V134.44h4.38c1.64,0,4.61.47,4.61,3.66,0,2.66-1.57,3.81-5,3.81H170v5.28ZM170,140h1.48c1.33,0,2.86-.14,2.86-1.8,0-1.21-.88-1.78-2.64-1.78H170Z" transform="translate(-65.64 -56.55)"/><path class="cls-6" d="M181,135.61a1.32,1.32,0,0,1-1.41,1.3,1.3,1.3,0,1,1,0-2.59A1.32,1.32,0,0,1,181,135.61Zm-.31,11.58h-2.16v-8.64h2.16Z" transform="translate(-65.64 -56.55)"/><path class="cls-6" d="M185.37,147.19h-2.16V133.58h2.16Z" transform="translate(-65.64 -56.55)"/><path class="cls-6" d="M190.05,147.19h-2.16V133.58h2.16Z" transform="translate(-65.64 -56.55)"/><path class="cls-6" d="M195,135.61a1.32,1.32,0,0,1-1.41,1.3,1.3,1.3,0,1,1,1.41-1.3Zm-.31,11.58h-2.16v-8.64h2.16Z" transform="translate(-65.64 -56.55)"/><path class="cls-6" d="M205.53,143v.62h-6.59a2.24,2.24,0,0,0,2.32,2.05,2.87,2.87,0,0,0,2.33-1.17l1.55,1.17a4.54,4.54,0,0,1-3.66,1.73,4.54,4.54,0,1,1,0-9.08C204.22,138.33,205.53,140.4,205.53,143Zm-2.16-1a2,2,0,0,0-2.21-2.05,2.15,2.15,0,0,0-2.22,2.05Z" transform="translate(-65.64 -56.55)"/><path class="cls-6" d="M207.55,138.55h2.16v1.37h0a2.75,2.75,0,0,1,3.33-1.46v2.09a3.93,3.93,0,0,0-1-.17,2.17,2.17,0,0,0-2.32,2.31v4.5h-2.16Z" transform="translate(-65.64 -56.55)"/><path class="cls-6" d="M121.65,157,120,158.78a2.68,2.68,0,0,0-2.23-1c-1.28,0-2.09.65-2.09,1.64s.72,1.33,2,1.73c2,.63,4.07,1.28,4.07,3.9s-2.07,4.07-4.58,4.07a5.28,5.28,0,0,1-4.26-1.72l1.71-1.66a3,3,0,0,0,2.52,1.33c1.22,0,2.23-.72,2.23-1.75s-.65-1.45-2.29-2c-2.28-.7-3.76-1.47-3.76-3.78s1.93-3.85,4.7-3.85A5.33,5.33,0,0,1,121.65,157Z" transform="translate(-65.64 -56.55)"/><path class="cls-6" d="M132.84,164.47a4.7,4.7,0,1,1-4.7-4.54A4.47,4.47,0,0,1,132.84,164.47Zm-4.7,2.59a2.59,2.59,0,1,0-2.54-2.59A2.49,2.49,0,0,0,128.14,167.06Z" transform="translate(-65.64 -56.55)"/><path class="cls-6" d="M142.25,161.25l-1.49,1.49a2.38,2.38,0,0,0-1.64-.86,2.59,2.59,0,0,0,0,5.18,2.12,2.12,0,0,0,1.68-.81l1.44,1.55a4.83,4.83,0,0,1-3.12,1.21,4.54,4.54,0,1,1,0-9.08A4.16,4.16,0,0,1,142.25,161.25Z" transform="translate(-65.64 -56.55)"/><path class="cls-6" d="M146,157.21a1.39,1.39,0,1,1-1.4-1.29A1.32,1.32,0,0,1,146,157.21Zm-.3,11.58h-2.16v-8.64h2.16Z" transform="translate(-65.64 -56.55)"/><path class="cls-6" d="M157.18,164.47a4.7,4.7,0,1,1-4.7-4.54A4.48,4.48,0,0,1,157.18,164.47Zm-4.7,2.59a2.59,2.59,0,1,0-2.54-2.59A2.49,2.49,0,0,0,152.48,167.06Z" transform="translate(-65.64 -56.55)"/><path class="cls-6" d="M163,165.28h-4.44v-1.84H163Z" transform="translate(-65.64 -56.55)"/><path class="cls-6" d="M173.18,164.61v.62h-6.59a2.24,2.24,0,0,0,2.32,2.05,2.86,2.86,0,0,0,2.32-1.17l1.55,1.17a4.52,4.52,0,0,1-3.65,1.73,4.54,4.54,0,1,1,0-9.08C171.86,159.93,173.18,162,173.18,164.61Zm-2.16-1a2,2,0,0,0-2.22-2,2.14,2.14,0,0,0-2.21,2Zm-1.37-5H168l1.78-2.59h2.45Z" transform="translate(-65.64 -56.55)"/><path class="cls-6" d="M182.59,161.25l-1.49,1.49a2.4,2.4,0,0,0-1.64-.86,2.59,2.59,0,0,0,0,5.18,2.08,2.08,0,0,0,1.67-.81l1.44,1.55a4.82,4.82,0,0,1-3.11,1.21,4.54,4.54,0,1,1,0-9.08A4.16,4.16,0,0,1,182.59,161.25Z" transform="translate(-65.64 -56.55)"/><path class="cls-6" d="M192.83,164.47a4.7,4.7,0,1,1-4.7-4.54A4.47,4.47,0,0,1,192.83,164.47Zm-4.7,2.59a2.59,2.59,0,1,0-2.53-2.59A2.49,2.49,0,0,0,188.13,167.06Z" transform="translate(-65.64 -56.55)"/><path class="cls-6" d="M194.85,168.79v-8.64h2.05v1.38h0a2.72,2.72,0,0,1,2.64-1.6c2.58,0,3.15,2,3.15,3.33v5.53h-2.16v-4.48c0-1.73-.56-2.43-1.58-2.43a1.92,1.92,0,0,0-2,2.16v4.75Z" transform="translate(-65.64 -56.55)"/><path class="cls-6" d="M214.15,164.47a4.7,4.7,0,1,1-4.71-4.54A4.48,4.48,0,0,1,214.15,164.47Zm-4.71,2.59a2.59,2.59,0,1,0-2.53-2.59A2.49,2.49,0,0,0,209.44,167.06Z" transform="translate(-65.64 -56.55)"/><path class="cls-6" d="M216.07,168.79v-8.64h2.05v1.35h0a2.76,2.76,0,0,1,2.64-1.57,2.63,2.63,0,0,1,2.7,1.6,3,3,0,0,1,2.85-1.6c2.12,0,3.11,1.39,3.11,3.76v5.1H227.3v-4.95c0-1.28-.52-2-1.6-2s-1.85.82-1.85,2.23v4.68h-2.16v-5.2c0-.87-.35-1.71-1.48-1.71a1.94,1.94,0,0,0-2,2.19v4.72Z" transform="translate(-65.64 -56.55)"/><path class="cls-6" d="M234.32,157.21a1.39,1.39,0,1,1-1.4-1.29A1.32,1.32,0,0,1,234.32,157.21ZM234,168.79h-2.16v-8.64H234Z" transform="translate(-65.64 -56.55)"/><path class="cls-6" d="M243.3,161.44h0v-1.29h2V172.9h-2.16v-5.21h0a3.61,3.61,0,0,1-2.94,1.32,4.25,4.25,0,0,1-4.18-4.54c0-2.56,1.61-4.54,4.25-4.54A3.34,3.34,0,0,1,243.3,161.44Zm-2.54,5.62a2.59,2.59,0,1,0-2.53-2.59A2.49,2.49,0,0,0,240.76,167.06Z" transform="translate(-65.64 -56.55)"/><path class="cls-6" d="M250,160.15v4.46c0,1.73.54,2.45,1.58,2.45a1.93,1.93,0,0,0,2-2.2v-4.71h2.16v8.64h-2.05V167.4h0A2.72,2.72,0,0,1,251,169c-2.52,0-3.15-1.91-3.15-3.33v-5.53Z" transform="translate(-65.64 -56.55)"/><path class="cls-6" d="M266.49,164.61v.62H259.9a2.24,2.24,0,0,0,2.32,2.05,2.86,2.86,0,0,0,2.32-1.17l1.55,1.17a4.52,4.52,0,0,1-3.65,1.73,4.54,4.54,0,1,1,0-9.08C265.17,159.93,266.49,162,266.49,164.61Zm-2.16-1a2,2,0,0,0-2.22-2,2.14,2.14,0,0,0-2.21,2Z" transform="translate(-65.64 -56.55)"/><path class="cls-8" d="M226.19,503.79V491h4.38c1.64,0,4.61.47,4.61,3.66,0,2.66-1.57,3.81-5,3.81h-1.75v5.28Zm2.27-7.22h1.48c1.33,0,2.86-.15,2.86-1.8,0-1.21-.88-1.78-2.65-1.78h-1.69Z" transform="translate(-65.64 -56.55)"/><path class="cls-8" d="M239.49,492.21a1.32,1.32,0,0,1-1.4,1.3,1.3,1.3,0,1,1,0-2.59A1.32,1.32,0,0,1,239.49,492.21Zm-.3,11.58H237v-8.64h2.16Z" transform="translate(-65.64 -56.55)"/><path class="cls-8" d="M243.87,503.79h-2.16V490.18h2.16Z" transform="translate(-65.64 -56.55)"/><path class="cls-8" d="M248.55,503.79h-2.16V490.18h2.16Z" transform="translate(-65.64 -56.55)"/><path class="cls-8" d="M253.53,492.21a1.32,1.32,0,0,1-1.4,1.3,1.3,1.3,0,1,1,1.4-1.3Zm-.3,11.58h-2.16v-8.64h2.16Z" transform="translate(-65.64 -56.55)"/><path class="cls-8" d="M264,499.61v.61h-6.59a2.24,2.24,0,0,0,2.32,2.06,2.86,2.86,0,0,0,2.32-1.17l1.55,1.17A4.51,4.51,0,0,1,260,504a4.54,4.54,0,1,1,0-9.07C262.71,494.93,264,497,264,499.61Zm-2.16-1a2,2,0,0,0-2.22-2.05,2.15,2.15,0,0,0-2.21,2.05Z" transform="translate(-65.64 -56.55)"/><path class="cls-8" d="M266,495.15h2.16v1.36h0a2.75,2.75,0,0,1,2.55-1.58,2.45,2.45,0,0,1,.78.13v2.08a4.33,4.33,0,0,0-1-.16,2.18,2.18,0,0,0-2.33,2.31v4.5H266Z" transform="translate(-65.64 -56.55)"/><path class="cls-8" d="M278.57,503.79V491H283c1.63,0,4.6.47,4.6,3.66,0,2.66-1.56,3.81-5,3.81h-1.74v5.28Zm2.27-7.22h1.48c1.33,0,2.86-.15,2.86-1.8,0-1.21-.88-1.78-2.65-1.78h-1.69Z" transform="translate(-65.64 -56.55)"/><path class="cls-8" d="M295.42,496.24l-1.44,1.3a2,2,0,0,0-1.69-.88c-.71,0-1.26.36-1.26.92s1,.83,2.05,1.08c1.33.3,2.61.79,2.61,2.57s-1.6,2.77-3.75,2.77a4.17,4.17,0,0,1-3.34-1.33l1.44-1.35a2.56,2.56,0,0,0,2,1.06c.79,0,1.44-.39,1.44-1,0-.82-1-1-2.14-1.22s-2.52-.68-2.52-2.45c0-2.11,2-2.79,3.45-2.79A3.76,3.76,0,0,1,295.42,496.24Z" transform="translate(-65.64 -56.55)"/><path class="cls-8" d="M304.76,496.24l-1.49,1.5a2.38,2.38,0,0,0-1.64-.86,2.59,2.59,0,0,0,0,5.18,2.08,2.08,0,0,0,1.67-.81l1.44,1.55a4.79,4.79,0,0,1-3.11,1.2,4.54,4.54,0,1,1,0-9.07A4.18,4.18,0,0,1,304.76,496.24Z" transform="translate(-65.64 -56.55)"/><path class="cls-8" d="M315,499.47a4.7,4.7,0,1,1-4.7-4.54A4.46,4.46,0,0,1,315,499.47Zm-4.7,2.59a2.59,2.59,0,1,0-2.53-2.59A2.49,2.49,0,0,0,310.3,502.06Z" transform="translate(-65.64 -56.55)"/><path class="cls-8" d="M320.85,500.28h-4.44v-1.84h4.44Z" transform="translate(-65.64 -56.55)"/><path class="cls-8" d="M328.74,496.24l-1.44,1.3a2,2,0,0,0-1.7-.88c-.7,0-1.26.36-1.26.92s1,.83,2.06,1.08c1.33.3,2.61.79,2.61,2.57S327.4,504,325.26,504a4.19,4.19,0,0,1-3.35-1.33l1.44-1.35a2.59,2.59,0,0,0,2.06,1.06c.79,0,1.44-.39,1.44-1,0-.82-1.05-1-2.15-1.22s-2.52-.68-2.52-2.45c0-2.11,2-2.79,3.46-2.79A3.76,3.76,0,0,1,328.74,496.24Z" transform="translate(-65.64 -56.55)"/><path class="cls-8" d="M339.65,499.47a4.7,4.7,0,1,1-4.7-4.54A4.47,4.47,0,0,1,339.65,499.47Zm-4.7,2.59a2.59,2.59,0,1,0-2.54-2.59A2.49,2.49,0,0,0,335,502.06Z" transform="translate(-65.64 -56.55)"/><path class="cls-8" d="M349.06,496.24l-1.5,1.5a2.38,2.38,0,0,0-1.63-.86,2.59,2.59,0,0,0,0,5.18,2.1,2.1,0,0,0,1.67-.81L349,502.8a4.81,4.81,0,0,1-3.11,1.2,4.54,4.54,0,1,1,0-9.07A4.18,4.18,0,0,1,349.06,496.24Z" transform="translate(-65.64 -56.55)"/><path class="cls-8" d="M352.84,492.21a1.32,1.32,0,0,1-1.41,1.3,1.3,1.3,0,1,1,0-2.59A1.32,1.32,0,0,1,352.84,492.21Zm-.31,11.58h-2.16v-8.64h2.16Z" transform="translate(-65.64 -56.55)"/><path class="cls-8" d="M354.44,501.41c0-2,1.6-3,5.31-3h.67v-.26c0-1-.8-1.6-2-1.6a3.44,3.44,0,0,0-2.31.9L355,496.32a4.93,4.93,0,0,1,3.67-1.39c2.95,0,3.69,1.66,3.69,3.69v5.17h-1.94V502.6h-.06a3.1,3.1,0,0,1-2.77,1.4C355.81,504,354.44,503,354.44,501.41Zm2.16-.16c0,.74.72,1.13,1.53,1.13,1.48,0,2.16-.82,2.16-1.92v-.54h-.63C357.75,499.92,356.6,500.33,356.6,501.25Z" transform="translate(-65.64 -56.55)"/><path class="cls-8" d="M366.88,503.79h-2.16V490.18h2.16Z" transform="translate(-65.64 -56.55)"/><rect class="cls-12" x="86.3" y="2.12" width="70.21" height="70.21"/><path class="cls-6" d="M198.74,70.38a5.85,5.85,0,1,1,5.85,5.85A5.84,5.84,0,0,1,198.74,70.38ZM210.44,123V105.48h7.32l-7.43-22.32a5.89,5.89,0,0,0-5.56-4h-.35a5.85,5.85,0,0,0-5.56,4l-2.52,7.55a10.19,10.19,0,0,1,5.33,8.92V123ZM188.5,92.32a4.39,4.39,0,1,0-4.39-4.39A4.38,4.38,0,0,0,188.5,92.32ZM168,76.23a5.86,5.86,0,1,0-5.85-5.85A5.83,5.83,0,0,0,168,76.23Zm5.85,46.8V102.56h4.39V85a5.86,5.86,0,0,0-5.85-5.85h-8.77A5.87,5.87,0,0,0,157.78,85v17.56h4.39V123Zm19,0v-11.7h2.93V99.63a4.42,4.42,0,0,0-4.39-4.39h-5.85a4.42,4.42,0,0,0-4.39,4.39v11.7h2.92V123Z" transform="translate(-65.64 -56.55)"/><path class="cls-9" d="M477.61,343.61h33.92v5.65H477.61Zm12-36.55,8-8,40,40-8,8Zm20-20,16,16-8,8-16-16Zm-24,24,16,16-8,8-16-16Z" transform="translate(-65.64 -56.55)"/><path class="cls-7" d="M132.33,311.75v8.34H149v-8.34Z" transform="translate(-65.64 -56.55)"/><path class="cls-7" d="M124,339.3c4,3,9.22,6.88,13.34,10,1.67-2.2,3.34-4.46,5-6.66l-13.34-10C127.33,334.84,125.66,337.09,124,339.3Z" transform="translate(-65.64 -56.55)"/><path class="cls-7" d="M142.34,289.24c-1.67-2.21-3.34-4.46-5-6.67l-13.34,10c1.67,2.21,3.34,4.46,5,6.67C133,296.24,138.21,292.37,142.34,289.24Z" transform="translate(-65.64 -56.55)"/><path class="cls-7" d="M74,303.41a8.36,8.36,0,0,0-8.33,8.34v8.34A8.36,8.36,0,0,0,74,328.42h4.17V345.1h8.34V328.42h4.17l20.84,12.51v-50l-20.84,12.5Zm21,7.13,8.21-4.92v20.59l-8.21-4.92-2-1.2H74v-8.34h19Z" transform="translate(-65.64 -56.55)"/><path class="cls-7" d="M121.91,315.92a18.7,18.7,0,0,0-6.25-14v27.89A18.54,18.54,0,0,0,121.91,315.92Z" transform="translate(-65.64 -56.55)"/><circle class="cls-8" cx="236.03" cy="462.09" r="7.82"/><path class="cls-8" d="M336.84,557.72V549.9A27.87,27.87,0,0,1,315,539.43l-5.24-6.25a7.72,7.72,0,0,0-6-2.82h-4.11a7.75,7.75,0,0,0-6,2.82l-5.23,6.25a28,28,0,0,1-21.93,10.47v7.82A35.54,35.54,0,0,0,293.85,545v8.79l-15.16,6.06a7,7,0,0,0,2.61,13.48h8.64v-2a9.77,9.77,0,0,1,9.77-9.77h11.72a2,2,0,1,1,0,3.91H299.71a5.85,5.85,0,0,0-5.86,5.86v2H322a7,7,0,0,0,2.62-13.48l-15.16-6.06V545A35.54,35.54,0,0,0,336.84,557.72Z" transform="translate(-65.64 -56.55)"/><rect class="cls-12" x="333.89" width="95.66" height="95.66"/><circle class="cls-10" cx="359.8" cy="61.78" r="5.98"/><circle class="cls-10" cx="387.7" cy="61.78" r="5.98"/><path class="cls-10" d="M415.47,100.4v-12h29a27.77,27.77,0,0,1-1.15-8H417.18c3.31-2.83,11.88-4.35,26.51-3.91A27.65,27.65,0,0,1,446,68.63c-34.68-1.44-38.54,7.93-38.54,15.82v37.87a13.8,13.8,0,0,0,4,9.72v8.21a4,4,0,0,0,4,4h4a4,4,0,0,0,4-4v-4h31.88v4a4,4,0,0,0,4,4h4a4,4,0,0,0,4-4V132a13.81,13.81,0,0,0,4-9.72V108.37a27.63,27.63,0,0,1-19.49-8Zm47.83,19.92a8,8,0,0,1-8,8H423.44a8,8,0,0,1-8-8V108.37H463.3Z" transform="translate(-65.64 -56.55)"/><path class="cls-10" d="M471.27,60.54A19.93,19.93,0,1,0,491.2,80.47,19.94,19.94,0,0,0,471.27,60.54Z" transform="translate(-65.64 -56.55)"/><rect class="cls-13" x="401.65" y="10.79" width="7.97" height="26.24"/><rect class="cls-13" x="467.28" y="67.34" width="7.97" height="26.24" transform="translate(325.16 495.18) rotate(-90)"/></svg>