<svg id="Layer_1" data-name="Layer 1" xmlns="http://www.w3.org/2000/svg" viewBox="0 0 600 600"><defs><style>.cls-1,.cls-2,.cls-3,.cls-4,.cls-5{fill:none;stroke-miterlimit:10;stroke-width:20px;}.cls-1{stroke:#fabe17;}.cls-2{stroke:#f47632;}.cls-3{stroke:#57abcd;}.cls-4{stroke:#676563;}.cls-5{stroke:#f16d6b;}.cls-11,.cls-6{fill:#fabe17;}.cls-7{fill:#f47632;}.cls-8{fill:#57abcd;}.cls-9{fill:#676563;}.cls-10{fill:#f16c6b;}.cls-11{font-size:29px;font-family:AvenirLTStd-Black, Avenir LT Std;}.cls-11,.cls-13{font-weight:800;}.cls-12{fill:#231f20;}.cls-13{font-size:18px;fill:#f1f2f2;font-family:Avenir-Heavy, Avenir;}.cls-14{letter-spacing:-0.02em;}.cls-15{fill:#f16d6b;}</style></defs><path class="cls-1" d="M176.67,254.12a132.41,132.41,0,0,1,125.18-89.25l2.33,0"/><path class="cls-2" d="M222.17,403a132.51,132.51,0,0,1-45.5-148.83"/><path class="cls-3" d="M377.77,405.69A132.42,132.42,0,0,1,222.17,403"/><path class="cls-4" d="M428.39,258.28a132.56,132.56,0,0,1-50.62,147.41"/><path class="cls-5" d="M304.18,164.89a132.43,132.43,0,0,1,124.21,93.39"/><polygon class="cls-6" points="199.64 200.88 229.5 174.54 191.76 161.85 199.64 200.88"/><polygon class="cls-7" points="172.46 354.81 134 344.5 162.15 316.35 172.46 354.81"/><polygon class="cls-8" points="280.19 470.5 304.61 439.05 265.17 433.62 280.19 470.5"/><polygon class="cls-9" points="463.16 360.14 438.66 328.76 423.73 365.67 463.16 360.14"/><polygon class="cls-10" points="402.71 198.77 408.72 159.41 371.63 173.88 402.71 198.77"/><text class="cls-11" transform="translate(186.22 281.04)">One Stop<tspan class="cls-12" x="130.41" y="0"> </tspan><tspan class="cls-7" x="138.99" y="0">Center</tspan></text><text class="cls-13" transform="translate(227.17 304.49)">La prise en cha<tspan class="cls-14" x="125.67" y="0">r</tspan><tspan x="132.35" y="0">ge</tspan><tspan x="35.84" y="21.6">holistique</tspan><tspan x="44.68" y="43.2">de VBG</tspan></text><rect class="cls-6" x="257.53" y="360.59" width="31.15" height="3.32"/><rect class="cls-7" x="226.39" y="360.59" width="31.15" height="3.32"/><rect class="cls-15" x="288.53" y="360.59" width="31.15" height="3.32"/><rect class="cls-8" x="319.68" y="360.59" width="31.15" height="3.32"/><rect class="cls-9" x="350.83" y="360.59" width="31.15" height="3.32"/></svg>